<svg width="124" height="38" viewBox="0 0 124 38" fill="none" xmlns="http://www.w3.org/2000/svg">
<path d="M117.439 0H6.56085C2.93739 0 0 4.47715 0 10V28C0 33.5228 2.93739 38 6.56085 38H117.439C121.063 38 124 33.5228 124 28V10C124 4.47715 121.063 0 117.439 0Z" fill="#4A9DFF"/>
<path d="M31.804 25.27C31 25.27 30.25 25.126 29.554 24.838C28.87 24.55 28.27 24.13 27.754 23.578C27.25 23.026 26.848 22.348 26.548 21.544C26.26 20.728 26.116 19.798 26.116 18.754C26.116 17.71 26.272 16.786 26.584 15.982C26.908 15.166 27.334 14.482 27.862 13.93C28.39 13.378 29.002 12.964 29.698 12.688C30.394 12.4 31.12 12.256 31.876 12.256C32.344 12.256 32.77 12.286 33.154 12.346C33.538 12.406 33.874 12.484 34.162 12.58C34.45 12.664 34.696 12.754 34.9 12.85C35.104 12.934 35.26 13.012 35.368 13.084L34.972 14.146C34.672 13.966 34.288 13.792 33.82 13.624C33.364 13.444 32.794 13.354 32.11 13.354C31.33 13.354 30.646 13.486 30.058 13.75C29.482 14.014 28.996 14.386 28.6 14.866C28.204 15.346 27.904 15.916 27.7 16.576C27.508 17.236 27.412 17.968 27.412 18.772C27.412 19.6 27.508 20.35 27.7 21.022C27.904 21.682 28.198 22.246 28.582 22.714C28.966 23.182 29.434 23.542 29.986 23.794C30.55 24.046 31.192 24.172 31.912 24.172C32.704 24.172 33.364 24.1 33.892 23.956C34.432 23.8 34.84 23.644 35.116 23.488L35.458 24.532C35.374 24.592 35.23 24.664 35.026 24.748C34.822 24.82 34.564 24.898 34.252 24.982C33.94 25.066 33.58 25.132 33.172 25.18C32.764 25.24 32.308 25.27 31.804 25.27ZM40.4508 24.154C40.9068 24.154 41.3028 24.142 41.6388 24.118C41.9868 24.082 42.2808 24.04 42.5208 23.992V20.716C42.3888 20.656 42.1788 20.596 41.8908 20.536C41.6028 20.464 41.2068 20.428 40.7028 20.428C40.4148 20.428 40.1148 20.452 39.8028 20.5C39.4908 20.536 39.2028 20.626 38.9388 20.77C38.6748 20.902 38.4588 21.088 38.2908 21.328C38.1228 21.568 38.0388 21.886 38.0388 22.282C38.0388 22.63 38.0928 22.924 38.2008 23.164C38.3208 23.404 38.4828 23.596 38.6868 23.74C38.9028 23.884 39.1548 23.992 39.4428 24.064C39.7428 24.124 40.0788 24.154 40.4508 24.154ZM40.3428 15.478C40.9548 15.478 41.4708 15.568 41.8908 15.748C42.3228 15.916 42.6708 16.156 42.9348 16.468C43.1988 16.768 43.3908 17.128 43.5108 17.548C43.6308 17.968 43.6908 18.424 43.6908 18.916V24.784C43.5708 24.82 43.3968 24.862 43.1688 24.91C42.9408 24.946 42.6768 24.988 42.3768 25.036C42.0768 25.084 41.7408 25.12 41.3688 25.144C41.0088 25.18 40.6368 25.198 40.2528 25.198C39.7608 25.198 39.3048 25.144 38.8848 25.036C38.4768 24.928 38.1168 24.76 37.8048 24.532C37.5048 24.292 37.2648 23.992 37.0848 23.632C36.9168 23.26 36.8328 22.81 36.8328 22.282C36.8328 21.778 36.9288 21.346 37.1208 20.986C37.3128 20.626 37.5828 20.332 37.9308 20.104C38.2788 19.864 38.6928 19.69 39.1728 19.582C39.6528 19.474 40.1748 19.42 40.7388 19.42C40.9068 19.42 41.0808 19.432 41.2607 19.456C41.4528 19.468 41.6328 19.492 41.8008 19.528C41.9808 19.552 42.1308 19.582 42.2508 19.618C42.3828 19.642 42.4728 19.666 42.5208 19.69V19.114C42.5208 18.79 42.4968 18.478 42.4488 18.178C42.4008 17.866 42.2928 17.59 42.1248 17.35C41.9688 17.098 41.7408 16.9 41.4408 16.756C41.1528 16.6 40.7688 16.522 40.2888 16.522C39.6048 16.522 39.0948 16.57 38.7588 16.666C38.4228 16.762 38.1768 16.84 38.0208 16.9L37.8588 15.874C38.0628 15.778 38.3748 15.688 38.7948 15.604C39.2268 15.52 39.7428 15.478 40.3428 15.478ZM49.033 25.162C48.637 25.15 48.289 25.096 47.989 25C47.701 24.916 47.455 24.784 47.251 24.604C47.059 24.412 46.909 24.172 46.801 23.884C46.705 23.584 46.657 23.212 46.657 22.768V11.248L47.827 11.032V22.732C47.827 23.02 47.851 23.254 47.899 23.434C47.959 23.602 48.043 23.74 48.151 23.848C48.259 23.944 48.397 24.016 48.565 24.064C48.745 24.112 48.955 24.154 49.195 24.19L49.033 25.162ZM55.1148 25.198C54.3948 25.198 53.7588 25.084 53.2068 24.856C52.6548 24.628 52.1928 24.304 51.8208 23.884C51.4608 23.452 51.1848 22.942 50.9928 22.354C50.8008 21.754 50.7048 21.094 50.7048 20.374C50.7048 19.642 50.8008 18.976 50.9928 18.376C51.1968 17.776 51.4848 17.26 51.8568 16.828C52.2288 16.396 52.6788 16.066 53.2068 15.838C53.7348 15.598 54.3288 15.478 54.9888 15.478C55.4928 15.478 55.9608 15.52 56.3928 15.604C56.8368 15.688 57.1788 15.796 57.4188 15.928L57.1128 16.936C56.8728 16.816 56.6028 16.72 56.3028 16.648C56.0028 16.576 55.6008 16.54 55.0968 16.54C54.0648 16.54 53.2788 16.876 52.7388 17.548C52.2108 18.208 51.9468 19.15 51.9468 20.374C51.9468 20.926 52.0068 21.436 52.1268 21.904C52.2468 22.36 52.4388 22.756 52.7028 23.092C52.9788 23.416 53.3268 23.674 53.7468 23.866C54.1788 24.046 54.7008 24.136 55.3128 24.136C55.8168 24.136 56.2368 24.082 56.5728 23.974C56.9208 23.854 57.1728 23.752 57.3288 23.668L57.5808 24.676C57.3648 24.796 57.0228 24.91 56.5548 25.018C56.0988 25.138 55.6188 25.198 55.1148 25.198ZM66.6881 24.676C66.3401 24.772 65.8721 24.88 65.2841 25C64.6961 25.12 63.9761 25.18 63.1241 25.18C62.4281 25.18 61.8461 25.078 61.3781 24.874C60.9101 24.67 60.5321 24.382 60.2441 24.01C59.9561 23.638 59.7461 23.188 59.6141 22.66C59.4941 22.132 59.4341 21.55 59.4341 20.914V15.694H60.6041V20.536C60.6041 21.196 60.6521 21.754 60.7481 22.21C60.8441 22.666 61.0001 23.038 61.2161 23.326C61.4321 23.602 61.7081 23.806 62.0441 23.938C62.3921 24.058 62.8121 24.118 63.3041 24.118C63.8561 24.118 64.3361 24.088 64.7441 24.028C65.1521 23.968 65.4101 23.914 65.5181 23.866V15.694H66.6881V24.676ZM72.1482 25.162C71.7522 25.15 71.4042 25.096 71.1042 25C70.8162 24.916 70.5702 24.784 70.3662 24.604C70.1742 24.412 70.0242 24.172 69.9162 23.884C69.8202 23.584 69.7722 23.212 69.7722 22.768V11.248L70.9422 11.032V22.732C70.9422 23.02 70.9662 23.254 71.0142 23.434C71.0742 23.602 71.1582 23.74 71.2662 23.848C71.3742 23.944 71.5122 24.016 71.6802 24.064C71.8602 24.112 72.0702 24.154 72.3102 24.19L72.1482 25.162ZM77.3121 24.154C77.7681 24.154 78.1641 24.142 78.5001 24.118C78.8481 24.082 79.1421 24.04 79.3821 23.992V20.716C79.2501 20.656 79.0401 20.596 78.7521 20.536C78.4641 20.464 78.0681 20.428 77.5641 20.428C77.2761 20.428 76.9761 20.452 76.6641 20.5C76.3521 20.536 76.0641 20.626 75.8001 20.77C75.5361 20.902 75.3201 21.088 75.1521 21.328C74.9841 21.568 74.9001 21.886 74.9001 22.282C74.9001 22.63 74.9541 22.924 75.0621 23.164C75.1821 23.404 75.3441 23.596 75.5481 23.74C75.7641 23.884 76.0161 23.992 76.3041 24.064C76.6041 24.124 76.9401 24.154 77.3121 24.154ZM77.2041 15.478C77.8161 15.478 78.3321 15.568 78.7521 15.748C79.1841 15.916 79.5321 16.156 79.7961 16.468C80.0601 16.768 80.2521 17.128 80.3721 17.548C80.4921 17.968 80.5521 18.424 80.5521 18.916V24.784C80.4321 24.82 80.2581 24.862 80.0301 24.91C79.8021 24.946 79.5381 24.988 79.2381 25.036C78.9381 25.084 78.6021 25.12 78.2301 25.144C77.8701 25.18 77.4981 25.198 77.1141 25.198C76.6221 25.198 76.1661 25.144 75.7461 25.036C75.3381 24.928 74.9781 24.76 74.6661 24.532C74.3661 24.292 74.1261 23.992 73.9461 23.632C73.7781 23.26 73.6941 22.81 73.6941 22.282C73.6941 21.778 73.7901 21.346 73.9821 20.986C74.1741 20.626 74.4441 20.332 74.7921 20.104C75.1401 19.864 75.5541 19.69 76.0341 19.582C76.5141 19.474 77.0361 19.42 77.6001 19.42C77.7681 19.42 77.9421 19.432 78.1221 19.456C78.3141 19.468 78.4941 19.492 78.6621 19.528C78.8421 19.552 78.9921 19.582 79.1121 19.618C79.2441 19.642 79.3341 19.666 79.3821 19.69V19.114C79.3821 18.79 79.3581 18.478 79.3101 18.178C79.2621 17.866 79.1541 17.59 78.9861 17.35C78.8301 17.098 78.6021 16.9 78.3021 16.756C78.0141 16.6 77.6301 16.522 77.1501 16.522C76.4661 16.522 75.9561 16.57 75.6201 16.666C75.2841 16.762 75.0381 16.84 74.8821 16.9L74.7201 15.874C74.9241 15.778 75.2361 15.688 75.6561 15.604C76.0881 15.52 76.6041 15.478 77.2041 15.478ZM84.6343 15.694H88.3423V16.684H84.6343V21.634C84.6343 22.162 84.6763 22.594 84.7603 22.93C84.8563 23.254 84.9883 23.506 85.1563 23.686C85.3243 23.866 85.5283 23.986 85.7683 24.046C86.0083 24.106 86.2723 24.136 86.5603 24.136C87.0523 24.136 87.4483 24.082 87.7483 23.974C88.0483 23.854 88.2823 23.746 88.4503 23.65L88.7383 24.622C88.5703 24.73 88.2763 24.856 87.8563 25C87.4363 25.132 86.9803 25.198 86.4883 25.198C85.9123 25.198 85.4263 25.126 85.0303 24.982C84.6463 24.826 84.3343 24.598 84.0943 24.298C83.8663 23.986 83.7043 23.602 83.6083 23.146C83.5123 22.69 83.4643 22.15 83.4643 21.526V12.958L84.6343 12.742V15.694ZM89.9392 20.338C89.9392 19.522 90.0532 18.814 90.2812 18.214C90.5212 17.602 90.8272 17.092 91.1992 16.684C91.5832 16.276 92.0152 15.976 92.4952 15.784C92.9872 15.58 93.4912 15.478 94.0072 15.478C95.1472 15.478 96.0532 15.85 96.7252 16.594C97.4092 17.338 97.7512 18.484 97.7512 20.032C97.7512 20.128 97.7452 20.224 97.7332 20.32C97.7332 20.416 97.7272 20.506 97.7152 20.59H91.1812C91.2172 21.73 91.4992 22.606 92.0272 23.218C92.5552 23.83 93.3952 24.136 94.5472 24.136C95.1832 24.136 95.6872 24.076 96.0592 23.956C96.4312 23.836 96.7012 23.734 96.8692 23.65L97.0852 24.658C96.9172 24.754 96.5992 24.868 96.1312 25C95.6752 25.132 95.1352 25.198 94.5112 25.198C93.6952 25.198 92.9992 25.078 92.4232 24.838C91.8472 24.598 91.3732 24.262 91.0012 23.83C90.6292 23.398 90.3592 22.888 90.1912 22.3C90.0232 21.7 89.9392 21.046 89.9392 20.338ZM96.5452 19.6C96.5212 18.628 96.2932 17.872 95.8612 17.332C95.4292 16.792 94.8172 16.522 94.0252 16.522C93.6052 16.522 93.2272 16.606 92.8912 16.774C92.5672 16.942 92.2792 17.17 92.0272 17.458C91.7872 17.734 91.5952 18.058 91.4512 18.43C91.3192 18.802 91.2412 19.192 91.2172 19.6H96.5452Z" fill="white"/>
</svg>
