<svg width="124" height="38" viewBox="0 0 124 38" fill="none" xmlns="http://www.w3.org/2000/svg">
<path d="M117.439 0H6.56085C2.93739 0 0 4.47715 0 10V28C0 33.5228 2.93739 38 6.56085 38H117.439C121.063 38 124 33.5228 124 28V10C124 4.47715 121.063 0 117.439 0Z" fill="#4A9DFF"/>
<path d="M46.302 23.208C47.274 23.208 48.03 23.034 48.57 22.686C49.11 22.326 49.38 21.75 49.38 20.958C49.38 20.502 49.29 20.124 49.11 19.824C48.942 19.512 48.714 19.254 48.426 19.05C48.138 18.834 47.808 18.654 47.436 18.51C47.064 18.354 46.674 18.192 46.266 18.024C45.75 17.82 45.288 17.61 44.88 17.394C44.472 17.178 44.124 16.938 43.836 16.674C43.548 16.398 43.326 16.086 43.17 15.738C43.026 15.39 42.954 14.982 42.954 14.514C42.954 13.446 43.308 12.636 44.016 12.084C44.724 11.532 45.708 11.256 46.968 11.256C47.304 11.256 47.634 11.28 47.958 11.328C48.282 11.376 48.582 11.442 48.858 11.526C49.146 11.598 49.404 11.682 49.632 11.778C49.872 11.874 50.07 11.976 50.226 12.084L49.794 13.11C49.446 12.87 49.02 12.678 48.516 12.534C48.024 12.39 47.49 12.318 46.914 12.318C46.518 12.318 46.152 12.36 45.816 12.444C45.492 12.516 45.21 12.642 44.97 12.822C44.73 12.99 44.538 13.206 44.394 13.47C44.262 13.734 44.196 14.052 44.196 14.424C44.196 14.808 44.268 15.132 44.412 15.396C44.556 15.66 44.754 15.888 45.006 16.08C45.27 16.272 45.576 16.446 45.924 16.602C46.272 16.758 46.65 16.92 47.058 17.088C47.55 17.292 48.012 17.496 48.444 17.7C48.888 17.904 49.272 18.144 49.596 18.42C49.92 18.696 50.178 19.032 50.37 19.428C50.562 19.824 50.658 20.31 50.658 20.886C50.658 22.014 50.262 22.86 49.47 23.424C48.69 23.988 47.628 24.27 46.284 24.27C45.804 24.27 45.366 24.24 44.97 24.18C44.574 24.12 44.22 24.048 43.908 23.964C43.596 23.868 43.332 23.772 43.116 23.676C42.9 23.58 42.732 23.496 42.612 23.424L43.008 22.362C43.128 22.434 43.29 22.518 43.494 22.614C43.698 22.71 43.938 22.806 44.214 22.902C44.49 22.986 44.802 23.058 45.15 23.118C45.498 23.178 45.882 23.208 46.302 23.208ZM55.7808 23.154C56.2368 23.154 56.6328 23.142 56.9688 23.118C57.3168 23.082 57.6108 23.04 57.8508 22.992V19.716C57.7188 19.656 57.5088 19.596 57.2208 19.536C56.9328 19.464 56.5368 19.428 56.0328 19.428C55.7448 19.428 55.4448 19.452 55.1328 19.5C54.8208 19.536 54.5328 19.626 54.2688 19.77C54.0048 19.902 53.7888 20.088 53.6208 20.328C53.4528 20.568 53.3688 20.886 53.3688 21.282C53.3688 21.63 53.4228 21.924 53.5308 22.164C53.6508 22.404 53.8128 22.596 54.0168 22.74C54.2328 22.884 54.4848 22.992 54.7728 23.064C55.0728 23.124 55.4088 23.154 55.7808 23.154ZM55.6728 14.478C56.2848 14.478 56.8008 14.568 57.2208 14.748C57.6528 14.916 58.0008 15.156 58.2648 15.468C58.5288 15.768 58.7208 16.128 58.8408 16.548C58.9608 16.968 59.0208 17.424 59.0208 17.916V23.784C58.9008 23.82 58.7268 23.862 58.4988 23.91C58.2708 23.946 58.0068 23.988 57.7068 24.036C57.4068 24.084 57.0708 24.12 56.6988 24.144C56.3388 24.18 55.9668 24.198 55.5828 24.198C55.0908 24.198 54.6348 24.144 54.2148 24.036C53.8068 23.928 53.4468 23.76 53.1348 23.532C52.8348 23.292 52.5948 22.992 52.4148 22.632C52.2468 22.26 52.1628 21.81 52.1628 21.282C52.1628 20.778 52.2588 20.346 52.4508 19.986C52.6428 19.626 52.9128 19.332 53.2608 19.104C53.6088 18.864 54.0228 18.69 54.5028 18.582C54.9828 18.474 55.5048 18.42 56.0688 18.42C56.2368 18.42 56.4108 18.432 56.5908 18.456C56.7828 18.468 56.9628 18.492 57.1308 18.528C57.3108 18.552 57.4608 18.582 57.5808 18.618C57.7128 18.642 57.8028 18.666 57.8508 18.69V18.114C57.8508 17.79 57.8268 17.478 57.7788 17.178C57.7308 16.866 57.6228 16.59 57.4548 16.35C57.2988 16.098 57.0708 15.9 56.7708 15.756C56.4828 15.6 56.0988 15.522 55.6188 15.522C54.9348 15.522 54.4248 15.57 54.0888 15.666C53.7528 15.762 53.5068 15.84 53.3508 15.9L53.1888 14.874C53.3928 14.778 53.7048 14.688 54.1248 14.604C54.5568 14.52 55.0728 14.478 55.6728 14.478ZM64.813 22.74C65.065 22.224 65.323 21.636 65.587 20.976C65.851 20.304 66.103 19.614 66.343 18.906C66.595 18.186 66.823 17.466 67.027 16.746C67.243 16.014 67.423 15.33 67.567 14.694H68.737C68.521 15.546 68.281 16.386 68.017 17.214C67.753 18.042 67.471 18.852 67.171 19.644C66.883 20.436 66.577 21.198 66.253 21.93C65.941 22.662 65.635 23.352 65.335 24H64.219C63.907 23.352 63.595 22.662 63.283 21.93C62.971 21.198 62.665 20.436 62.365 19.644C62.077 18.852 61.801 18.042 61.537 17.214C61.273 16.386 61.033 15.546 60.817 14.694H62.059C62.203 15.33 62.377 16.014 62.581 16.746C62.797 17.466 63.025 18.186 63.265 18.906C63.517 19.614 63.775 20.304 64.039 20.976C64.303 21.636 64.561 22.224 64.813 22.74ZM70.0955 19.338C70.0955 18.522 70.2095 17.814 70.4375 17.214C70.6775 16.602 70.9835 16.092 71.3555 15.684C71.7395 15.276 72.1715 14.976 72.6515 14.784C73.1435 14.58 73.6475 14.478 74.1635 14.478C75.3035 14.478 76.2095 14.85 76.8815 15.594C77.5655 16.338 77.9075 17.484 77.9075 19.032C77.9075 19.128 77.9015 19.224 77.8895 19.32C77.8895 19.416 77.8835 19.506 77.8715 19.59H71.3375C71.3735 20.73 71.6555 21.606 72.1835 22.218C72.7115 22.83 73.5515 23.136 74.7035 23.136C75.3395 23.136 75.8435 23.076 76.2155 22.956C76.5875 22.836 76.8575 22.734 77.0255 22.65L77.2415 23.658C77.0735 23.754 76.7555 23.868 76.2875 24C75.8315 24.132 75.2915 24.198 74.6675 24.198C73.8515 24.198 73.1555 24.078 72.5795 23.838C72.0035 23.598 71.5295 23.262 71.1575 22.83C70.7855 22.398 70.5155 21.888 70.3475 21.3C70.1795 20.7 70.0955 20.046 70.0955 19.338ZM76.7015 18.6C76.6775 17.628 76.4495 16.872 76.0175 16.332C75.5855 15.792 74.9735 15.522 74.1815 15.522C73.7615 15.522 73.3835 15.606 73.0475 15.774C72.7235 15.942 72.4355 16.17 72.1835 16.458C71.9435 16.734 71.7515 17.058 71.6075 17.43C71.4755 17.802 71.3975 18.192 71.3735 18.6H76.7015Z" fill="white"/>
</svg>